HIERARCHY
ROOT Hips
{
	OFFSET 0.000000 0.000000 0.000000 
	CHANNELS 6 Xposition Yposition Zposition Yrotation Zrotation Xrotation 
	JOINT Lumbar
	{
		OFFSET 0.000000 0.000000 0.000000 
		CHANNELS 3 Zrotation Xrotation Yrotation
		JOINT Neck
		{
			OFFSET 0.000000 0.445665 0.000000 
			CHANNELS 3 Zrotation Xrotation Yrotation
			End Site
			{
				OFFSET 0.000000 0.227535 0.000000 
			}
		}
		JOINT RightShoulder
		{
			OFFSET 0.019635 0.377685 0.194865 
			CHANNELS 3 Zrotation Xrotation Yrotation
			JOINT RightElbow
			{
				OFFSET 0.000000 -0.243375 0.000000 
				CHANNELS 2 Zrotation Yrotation
				JOINT RightWrist
				{
					OFFSET 0.000000 -0.264825 0.000000 
					CHANNELS 2 Zrotation Xrotation
					End Site
					{
						OFFSET 0.006600 -0.176220 0.000990 
					}
				}
			}
		}
		JOINT LeftShoulder
		{
			OFFSET 0.019635 0.377685 -0.194865 
			CHANNELS 3 Zrotation Xrotation Yrotation
			JOINT LeftElbow
			{
				OFFSET 0.000000 -0.243375 0.000000 
				CHANNELS 2 Zrotation Yrotation
				JOINT LeftWrist
				{
					OFFSET 0.000000 -0.264825 0.000000 
					CHANNELS 2 Zrotation Xrotation
					End Site
					{
						OFFSET 0.006600 -0.176220 -0.000990 
					}
				}
			}
		}
	}
	JOINT RightHip
	{
		OFFSET 0.052140 -0.069960 0.075570 
		CHANNELS 3 Zrotation Xrotation Yrotation
		JOINT RightKnee
		{
			OFFSET 0.000000 -0.402270 0.000000 
			CHANNELS 1 Zrotation
			JOINT RightAnkle
			{
				OFFSET 0.000000 -0.404085 0.000000 
				CHANNELS 3 Zrotation Xrotation Yrotation
				End Site
				{
					OFFSET 0.204105 -0.089430 0.008415 
				}
			}
		}
	}
	JOINT LeftHip
	{
		OFFSET 0.052140 -0.069960 -0.075570 
		CHANNELS 3 Zrotation Xrotation Yrotation
		JOINT LeftKnee
		{
			OFFSET 0.000000 -0.402270 0.000000 
			CHANNELS 1 Zrotation
			JOINT LeftAnkle
			{
				OFFSET 0.000000 -0.404085 0.000000 
				CHANNELS 3 Zrotation Xrotation Yrotation
				End Site
				{
					OFFSET 0.204105 -0.089430 -0.008415 
				}
			}
		}
	}
}
MOTION
Frames: 22
Frame Time: 0.02
0.00013 1e-05 0.00027 20.42288 -21.37439 -6.33778 44.06722 2.22271 -5.49042 -7.8628 -1.8577 -0.33642 -20.85621 -11.01095 5.01493 36.63143 88.70193 5.84596 -0.65209 -22.88953 11.89446 -6.04501 42.5978 -114.61609 17.53216 -2.42367 34.35369 0.03427 -7.98786 -20.75299 -8.30363 -4.50955 -3.11458 38.36567 7.64649 4.72445 -26.90981 -8.77273 4.65566 3.21165
0.0001 0 0.0002 20.41181 -21.346 -6.31645 44.02935 2.22664 -5.44036 -7.86789 -1.9266 -0.33683 -20.84983 -10.97862 4.83767 36.35756 88.69997 5.80511 -0.63195 -22.79098 11.78599 -5.77841 42.0987 -114.61166 17.52839 -2.46192 34.31821 0.01085 -7.97148 -20.75373 -8.30822 -4.51369 -3.11725 38.32539 7.5649 4.50252 -26.90479 -8.80167 4.68078 3.22893
8e-05 -0 0.00012 20.40073 -21.3177 -6.29519 43.99158 2.23057 -5.39043 -7.87297 -1.99531 -0.33724 -20.84341 -10.9464 4.6608 36.08448 88.69821 5.7644 -0.61183 -22.69278 11.67781 -5.51241 41.60074 -114.60719 17.52461 -2.50008 34.28285 -0.01253 -7.95533 -20.75445 -8.3128 -4.51781 -3.11991 38.28524 7.48358 4.28137 -26.89978 -8.83054 4.70582 3.24616
5e-05 -1e-05 4e-05 20.38968 -21.2894 -6.27393 43.95383 2.23449 -5.34051 -7.87805 -2.064 -0.33764 -20.83705 -10.91418 4.48408 35.81144 88.69615 5.72365 -0.59178 -22.59454 11.56967 -5.24658 41.10312 -114.60279 17.52085 -2.53822 34.24748 -0.03588 -7.93901 -20.75518 -8.31738 -4.52194 -3.12257 38.24507 7.40224 4.06013 -26.89478 -8.8594 4.73087 3.26339
2e-05 -2e-05 -3e-05 20.37867 -21.261 -6.2526 43.91599 2.23842 -5.29047 -7.88316 -2.13288 -0.33805 -20.83073 -10.88181 4.30699 35.53762 88.6942 5.68282 -0.57163 -22.49593 11.46126 -4.98029 40.60453 -114.59835 17.51708 -2.57643 34.21197 -0.05927 -7.92244 -20.75593 -8.32197 -4.5261 -3.12526 38.20477 7.32062 3.83812 -26.88978 -8.88834 4.756 3.28068
-0 -3e-05 -0.00011 20.36745 -21.23292 -6.2315 43.87835 2.24233 -5.24078 -7.88817 -2.20125 -0.33846 -20.82409 -10.84993 4.13056 35.26613 88.69303 5.6424 -0.55153 -22.3986 11.35358 -4.71491 40.10793 -114.59377 17.51329 -2.61447 34.17695 -0.08264 -7.90723 -20.7566 -8.32652 -4.53013 -3.12785 38.16494 7.23994 3.61879 -26.88476 -8.91706 4.78085 3.29777
-3e-05 -4e-05 -0.00019 20.35664 -21.20422 -6.20996 43.84038 2.24628 -5.19041 -7.89336 -2.27056 -0.33886 -20.81816 -10.81715 3.95312 34.99025 88.68934 5.60102 -0.53161 -22.29883 11.24452 -4.44793 39.60785 -114.58975 17.5096 -2.65287 34.14097 -0.106 -7.88916 -20.75742 -8.33115 -4.53444 -3.13063 38.12419 7.15745 3.39425 -26.87978 -8.9462 4.80624 3.31524
-5e-05 -5e-05 -0.00026 20.34548 -21.17611 -6.18884 43.80266 2.25019 -5.14071 -7.89838 -2.33898 -0.33927 -20.81147 -10.7851 3.77638 34.71844 88.68971 5.56085 -0.51106 -22.20126 11.13677 -4.18253 39.11104 -114.58469 17.50572 -2.6908 34.10591 -0.12941 -7.87399 -20.75811 -8.3357 -4.53845 -3.13322 38.08434 7.07666 3.17462 -26.87476 -8.97494 4.83112 3.33236
-8e-05 -5e-05 -0.00034 20.33378 -21.14866 -6.16815 43.76544 2.25406 -5.09166 -7.90323 -2.40643 -0.33967 -20.80423 -10.75431 3.60133 34.4514 88.68818 5.52088 -0.49153 -22.10651 11.03044 -3.91848 38.6177 -114.58042 17.50197 -2.72875 34.07181 -0.15272 -7.86132 -20.75861 -8.3402 -4.54224 -3.13566 38.04537 6.99777 2.96051 -26.86969 -9.00324 4.85544 3.34908
-0.0001 -7e-05 -0.00042 20.32485 -21.11721 -6.14474 43.72595 2.25818 -5.03838 -7.90918 -2.47982 -0.34009 -20.8013 -10.71737 3.41907 34.15627 88.67694 5.47589 -0.47151 -21.99592 10.9154 -3.64493 38.10276 -114.5778 17.49856 -2.76835 34.03169 -0.17614 -7.83112 -20.76012 -8.34514 -4.54772 -3.13921 38.00065 6.90743 2.71318 -26.86491 -9.03419 4.88317 3.36818
-0.00013 -6e-05 -0.00049 20.31032 -21.09432 -6.12722 43.69085 2.26177 -4.99435 -7.91274 -2.54045 -0.34048 -20.78856 -10.69272 3.25041 33.92086 88.69937 5.44396 -0.44912 -21.91852 10.81909 -3.39257 37.63453 -114.56775 17.49374 -2.80333 34.00458 -0.19962 -7.8399 -20.75953 -8.34904 -4.54939 -3.14028 37.9685 6.84158 2.53689 -26.85951 -9.05948 4.90358 3.38219
-0.00017 1e-05 -0.00054 20.2781 -21.09419 -6.12473 43.67077 2.26394 -4.97309 -7.91002 -2.56767 -0.34075 -20.75388 -10.70794 3.13358 33.84665 88.70256 5.42728 -0.44913 -21.93443 10.77187 -3.18958 37.28634 -114.57059 17.49085 -2.83508 34.01136 -0.22085 -7.9393 -20.75306 -8.35096 -4.54262 -3.13557 37.96792 6.84061 2.54879 -26.85252 -9.06978 4.90477 3.38274
-0.00022 0.00011 -0.00058 20.24071 -21.10279 -6.12833 43.65429 2.26559 -4.96157 -7.90475 -2.5818 -0.34101 -20.70806 -10.73454 3.02839 33.83268 88.75704 5.42692 -0.44221 -21.98292 10.74396 -3.00976 36.98662 -114.56053 17.48555 -2.86063 34.03168 -0.24248 -8.08005 -20.74452 -8.35175 -4.53175 -3.12823 37.98063 6.86452 2.63281 -26.84489 -9.07432 4.89847 3.3781
-0.00029 0.0002 -0.00062 20.2072 -21.10784 -6.1299 43.63456 2.26746 -4.94736 -7.90054 -2.60084 -0.34127 -20.66451 -10.75173 2.90753 33.79315 88.86512 5.43333 -0.41856 -22.01541 10.70864 -2.82466 36.66994 -114.53372 17.47747 -2.88255 34.04683 -0.26569 -8.21363 -20.73698 -8.35242 -4.52133 -3.12133 37.98905 6.87871 2.68877 -26.83745 -9.08113 4.89496 3.37546
-0.00028 0.00028 -0.00068 20.16717 -21.1111 -6.12848 43.62276 2.26939 -4.92603 -7.89708 -2.62413 -0.34149 -20.63418 -10.78617 2.82769 33.74693 88.66194 5.38242 -0.47552 -22.05427 10.66733 -2.61623 36.33172 -114.59937 17.48541 -2.93085 34.05728 -0.28197 -8.30164 -20.72912 -8.35549 -4.51647 -3.11739 37.98966 6.88679 2.7268 -26.83035 -9.08931 4.89389 3.37424
-0.00043 0.00038 -0.00068 20.13953 -21.12021 -6.13461 43.59389 2.2711 -4.92158 -7.89103 -2.63558 -0.34186 -20.57183 -10.78822 2.6687 33.72784 89.10254 5.45159 -0.36708 -22.08599 10.64341 -2.4634 36.05015 -114.47311 17.45986 -2.9238 34.08146 -0.31214 -8.49007 -20.72154 -8.35361 -4.49954 -3.10694 38.01028 6.91281 2.81699 -26.82248 -9.0934 4.88613 3.36896
-0.00095 0.00054 -0.00052 20.14714 -21.14306 -6.16108 43.52854 2.27199 -4.96341 -7.8821 -2.61655 -0.34201 -20.43922 -10.69068 2.258 33.77805 91.45419 5.87588 0.2328 -22.10304 10.65973 -2.44585 35.91036 -113.78953 17.33872 -2.75651 34.13412 -0.38629 -8.9829 -20.7142 -8.33577 -4.44631 -3.07674 38.0781 6.98801 3.05299 -26.81204 -9.08647 4.8602 3.35266
-0.00164 0.0007 -0.00029 20.16747 -21.17156 -6.19474 43.44341 2.27274 -5.02143 -7.86992 -2.58626 -0.34245 -20.27162 -10.56151 1.77287 33.85168 94.42653 6.4156 0.99255 -22.10897 10.69346 -2.48598 35.82633 -112.92 17.18476 -2.53557 34.20137 -0.47343 -9.56872 -20.70739 -8.31347 -4.38182 -3.04051 38.16661 7.07934 3.33552 -26.80095 -9.07585 4.82807 3.33265
-0.0023 0.00085 -8e-05 20.18212 -21.19767 -6.22452 43.36019 2.27374 -5.07077 -7.85694 -2.56171 -0.3432 -20.11025 -10.45169 1.34167 33.9087 97.01668 6.88402 1.65468 -22.11191 10.72117 -2.50775 35.7187 -112.15435 17.04808 -2.34483 34.2658 -0.5508 -10.08718 -20.70099 -8.29493 -4.32514 -3.00863 38.24867 7.15953 3.58374 -26.7906 -9.06765 4.79979 3.31508
-0.00278 0.00105 7e-05 20.19611 -21.22335 -6.25721 43.30831 2.27388 -5.12632 -7.85378 -2.53391 -0.34209 -19.9904 -10.32135 0.82606 33.99338 100.02374 7.43131 2.42066 -22.15148 10.74148 -2.49645 35.60578 -111.30223 16.90086 -2.1286 34.31418 -0.64417 -10.71179 -20.69178 -8.26907 -4.25704 -2.9699 38.31828 7.25666 3.88929 -26.77844 -9.05608 4.76692 3.29421
-0.00367 0.00113 0.00038 20.21462 -21.25115 -6.28534 43.18475 2.27585 -5.17228 -7.82907 -2.51061 -0.34491 -19.77453 -10.22599 0.46839 34.0248 102.31861 7.84307 3.01049 -22.10976 10.78119 -2.56833 35.51605 -110.59149 16.76843 -1.95371 34.39986 -0.70769 -11.13842 -20.68855 -8.25737 -4.20998 -2.94398 38.41914 7.32204 4.08646 -26.76977 -9.05075 4.7422 3.27934
-0.00557 0.00092 0.00108 20.24198 -21.284 -6.30018 42.8822 2.2825 -5.19086 -7.74835 -2.50061 -0.35858 -19.31409 -10.23578 0.56564 33.90744 102.41128 7.83872 3.05487 -21.86225 10.86932 -2.84814 35.48066 -110.26984 16.67948 -1.89823 34.58078 -0.68217 -10.98208 -20.70204 -8.2862 -4.22474 -2.95557 38.5972 7.2954 3.96522 -26.77216 -9.06352 4.74183 3.28228
